<svg width="100" height="100" viewBox="0 0 100 100" fill="none" xmlns="http://www.w3.org/2000/svg">
<mask id="mask0_7_57" style="mask-type:alpha" maskUnits="userSpaceOnUse" x="0" y="0" width="100" height="100">
<rect width="100" height="100" fill="white"/>
</mask>
<g mask="url(#mask0_7_57)">
<path d="M50 106.25C50 106.803 49.7974 107.332 49.4367 107.723C49.0761 108.114 48.587 108.333 48.0769 108.333C47.5669 108.333 47.0777 108.114 46.7171 107.723C46.3565 107.332 46.1538 106.803 46.1538 106.25C46.1398 92.4413 41.0701 79.2025 32.057 69.4383C23.0438 59.674 10.8234 54.1818 -1.92308 54.1667C-13.6499 54.1805 -24.8928 59.2332 -33.1849 68.2164C-41.477 77.1995 -46.1411 89.3793 -46.1538 102.083C-46.1424 113.683 -41.8839 124.804 -34.3128 133.006C-26.7417 141.208 -16.4764 145.821 -5.76923 145.833C3.91824 145.822 13.206 141.648 20.0561 134.227C26.9062 126.807 30.759 116.745 30.7692 106.25C30.7603 96.8599 27.3131 87.8571 21.184 81.2173C15.055 74.5775 6.74473 70.843 -1.92308 70.8333C-9.57082 70.843 -16.9028 74.1385 -22.3106 79.9969C-27.7183 85.8553 -30.7603 93.7983 -30.7692 102.083C-30.7616 109.264 -28.1252 116.148 -23.4385 121.225C-18.7517 126.302 -12.3973 129.158 -5.76923 129.167C-0.160837 129.16 5.21603 126.743 9.18177 122.447C13.1475 118.151 15.3783 112.326 15.3846 106.25C15.3846 101.277 13.5611 96.5081 10.3153 92.9918C7.06949 89.4754 2.66721 87.5 -1.92308 87.5C-5.4933 87.5 -8.9173 89.0365 -11.4418 91.7714C-13.9664 94.5063 -15.3846 98.2156 -15.3846 102.083C-15.3846 104.846 -14.3716 107.496 -12.5683 109.449C-10.7651 111.403 -8.31939 112.5 -5.76923 112.5C-4.23914 112.5 -2.77171 111.842 -1.68977 110.669C-0.607833 109.497 -4.7684e-07 107.908 -4.7684e-07 106.25C-4.7684e-07 105.697 -0.202609 105.168 -0.563256 104.777C-0.923903 104.386 -1.41304 104.167 -1.92308 104.167C-2.43311 104.167 -2.92225 103.947 -3.2829 103.556C-3.64355 103.166 -3.84616 102.636 -3.84616 102.083C-3.84616 101.531 -3.64355 101.001 -3.2829 100.61C-2.92225 100.219 -2.43311 100 -1.92308 100C-0.392982 100 1.07444 100.658 2.15638 101.831C3.23832 103.003 3.84615 104.592 3.84615 106.25C3.84615 107.618 3.59744 108.972 3.11422 110.236C2.631 111.5 1.92274 112.648 1.02987 113.616C0.137001 114.583 -0.922988 115.35 -2.08958 115.874C-3.25617 116.397 -4.50652 116.667 -5.76923 116.667C-9.33945 116.667 -12.7634 115.13 -15.288 112.395C-17.8125 109.66 -19.2308 105.951 -19.2308 102.083C-19.2308 97.1105 -17.4073 92.3414 -14.1615 88.8251C-10.9156 85.3088 -6.51336 83.3333 -1.92308 83.3333C3.68532 83.3402 9.06219 85.7569 13.0279 90.0531C16.9937 94.3493 19.2244 100.174 19.2308 106.25C19.2231 113.43 16.5868 120.314 11.9 125.392C7.21325 130.469 0.858835 133.325 -5.76923 133.333C-13.417 133.324 -20.7489 130.028 -26.1567 124.17C-31.5645 118.311 -34.6065 110.368 -34.6154 102.083C-34.6065 92.6932 -31.1593 83.6904 -25.0302 77.0506C-18.9011 70.4108 -10.5909 66.6763 -1.92308 66.6667C7.7644 66.6777 17.0522 70.8516 23.9023 78.2725C30.7523 85.6935 34.6052 95.7552 34.6154 106.25C34.6039 117.849 30.3455 128.97 22.7744 137.172C15.2032 145.374 4.93792 149.988 -5.76923 150C-17.4961 149.986 -28.7389 144.933 -37.0311 135.95C-45.3232 126.967 -49.9873 114.787 -50 102.083C-49.986 88.2746 -44.9163 75.0358 -35.9031 65.2716C-26.89 55.5074 -14.6696 50.0152 -1.92308 50C11.8431 50.0165 25.0411 55.9482 34.7752 66.4935C44.5094 77.0389 49.9847 91.3367 50 106.25Z" fill="#ECDABF"/>
<path d="M50 6.25C50 6.80254 49.7974 7.33244 49.4367 7.72315C49.0761 8.11385 48.587 8.33334 48.0769 8.33334C47.5669 8.33334 47.0777 8.11385 46.7171 7.72315C46.3565 7.33244 46.1538 6.80254 46.1538 6.25C46.1398 -7.5587 41.0701 -20.7975 32.057 -30.5617C23.0438 -40.326 10.8234 -45.8182 -1.92308 -45.8333C-13.6499 -45.8195 -24.8928 -40.7668 -33.1849 -31.7836C-41.477 -22.8005 -46.1411 -10.6207 -46.1538 2.08334C-46.1424 13.6828 -41.8839 24.8035 -34.3128 33.0056C-26.7417 41.2076 -16.4764 45.8209 -5.76923 45.8333C3.91824 45.8223 13.206 41.6484 20.0561 34.2275C26.9062 26.8065 30.759 16.7448 30.7692 6.25C30.7603 -3.14012 27.3131 -12.1429 21.184 -18.7827C15.055 -25.4225 6.74473 -29.157 -1.92308 -29.1667C-9.57082 -29.157 -16.9028 -25.8615 -22.3106 -20.0031C-27.7183 -14.1447 -30.7603 -6.20172 -30.7692 2.08334C-30.7616 9.26375 -28.1252 16.1477 -23.4385 21.225C-18.7517 26.3023 -12.3973 29.1584 -5.76923 29.1667C-0.160837 29.1598 5.21603 26.7431 9.18177 22.4469C13.1475 18.1507 15.3783 12.3258 15.3846 6.25C15.3846 1.2772 13.5611 -3.49194 10.3153 -7.00825C7.06949 -10.5246 2.66721 -12.5 -1.92308 -12.5C-5.4933 -12.5 -8.9173 -10.9635 -11.4418 -8.22864C-13.9664 -5.49373 -15.3846 -1.7844 -15.3846 2.08334C-15.3846 4.84601 -14.3716 7.49553 -12.5683 9.44903C-10.7651 11.4025 -8.31939 12.5 -5.76923 12.5C-4.23914 12.5 -2.77171 11.8415 -1.68977 10.6694C-0.607833 9.49732 -4.7684e-07 7.90761 -4.7684e-07 6.25C-4.7684e-07 5.69747 -0.202609 5.16756 -0.563256 4.77686C-0.923903 4.38616 -1.41304 4.16667 -1.92308 4.16667C-2.43311 4.16667 -2.92225 3.94718 -3.2829 3.55648C-3.64355 3.16578 -3.84616 2.63587 -3.84616 2.08334C-3.84616 1.5308 -3.64355 1.0009 -3.2829 0.610197C-2.92225 0.219496 -2.43311 1.66893e-06 -1.92308 1.66893e-06C-0.392982 1.66893e-06 1.07444 0.658488 2.15638 1.83059C3.23832 3.00269 3.84615 4.5924 3.84615 6.25C3.84615 7.61794 3.59744 8.97248 3.11422 10.2363C2.631 11.5001 1.92274 12.6484 1.02987 13.6157C0.137001 14.583 -0.922988 15.3503 -2.08958 15.8737C-3.25617 16.3972 -4.50652 16.6667 -5.76923 16.6667C-9.33945 16.6667 -12.7634 15.1302 -15.288 12.3953C-17.8125 9.66041 -19.2308 5.95108 -19.2308 2.08334C-19.2308 -2.88947 -17.4073 -7.65861 -14.1615 -11.1749C-10.9156 -14.6912 -6.51336 -16.6667 -1.92308 -16.6667C3.68532 -16.6598 9.06219 -14.2431 13.0279 -9.94692C16.9937 -5.6507 19.2244 0.174242 19.2308 6.25C19.2231 13.4304 16.5868 20.3144 11.9 25.3917C7.21325 30.469 0.858835 33.3251 -5.76923 33.3333C-13.417 33.3237 -20.7489 30.0282 -26.1567 24.1698C-31.5645 18.3113 -34.6065 10.3684 -34.6154 2.08334C-34.6065 -7.30678 -31.1593 -16.3096 -25.0302 -22.9494C-18.9011 -29.5892 -10.5909 -33.3237 -1.92308 -33.3333C7.7644 -33.3223 17.0522 -29.1484 23.9023 -21.7275C30.7523 -14.3065 34.6052 -4.24476 34.6154 6.25C34.6039 17.8494 30.3455 28.9702 22.7744 37.1722C15.2032 45.3743 4.93792 49.9876 -5.76923 50C-17.4961 49.9862 -28.7389 44.9334 -37.0311 35.9503C-45.3232 26.9672 -49.9873 14.7874 -50 2.08334C-49.986 -11.7254 -44.9163 -24.9642 -35.9031 -34.7284C-26.89 -44.4926 -14.6696 -49.9848 -1.92308 -50C11.8431 -49.9835 25.0411 -44.0518 34.7752 -33.5065C44.5094 -22.9611 49.9847 -8.66335 50 6.25Z" fill="#ECDABF"/>
<path d="M150 106.25C150 106.803 149.797 107.332 149.437 107.723C149.076 108.114 148.587 108.333 148.077 108.333C147.567 108.333 147.078 108.114 146.717 107.723C146.356 107.332 146.154 106.803 146.154 106.25C146.14 92.4413 141.07 79.2025 132.057 69.4383C123.044 59.674 110.823 54.1818 98.0769 54.1667C86.3501 54.1805 75.1072 59.2332 66.8151 68.2164C58.523 77.1995 53.8589 89.3793 53.8462 102.083C53.8576 113.683 58.1161 124.804 65.6872 133.006C73.2583 141.208 83.5236 145.821 94.2308 145.833C103.918 145.822 113.206 141.648 120.056 134.227C126.906 126.807 130.759 116.745 130.769 106.25C130.76 96.8599 127.313 87.8571 121.184 81.2173C115.055 74.5775 106.745 70.843 98.0769 70.8333C90.4292 70.843 83.0972 74.1385 77.6894 79.9969C72.2817 85.8553 69.2397 93.7983 69.2308 102.083C69.2384 109.264 71.8748 116.148 76.5615 121.225C81.2483 126.302 87.6027 129.158 94.2308 129.167C99.8392 129.16 105.216 126.743 109.182 122.447C113.148 118.151 115.378 112.326 115.385 106.25C115.385 101.277 113.561 96.5081 110.315 92.9918C107.069 89.4754 102.667 87.5 98.0769 87.5C94.5067 87.5 91.0827 89.0365 88.5582 91.7714C86.0336 94.5063 84.6154 98.2156 84.6154 102.083C84.6154 104.846 85.6284 107.496 87.4317 109.449C89.2349 111.403 91.6806 112.5 94.2308 112.5C95.7609 112.5 97.2283 111.842 98.3102 110.669C99.3922 109.497 100 107.908 100 106.25C100 105.697 99.7974 105.168 99.4367 104.777C99.0761 104.386 98.587 104.167 98.0769 104.167C97.5669 104.167 97.0777 103.947 96.7171 103.556C96.3565 103.166 96.1538 102.636 96.1538 102.083C96.1538 101.531 96.3565 101.001 96.7171 100.61C97.0777 100.219 97.5669 100 98.0769 100C99.607 100 101.074 100.658 102.156 101.831C103.238 103.003 103.846 104.592 103.846 106.25C103.846 107.618 103.597 108.972 103.114 110.236C102.631 111.5 101.923 112.648 101.03 113.616C100.137 114.583 99.077 115.35 97.9104 115.874C96.7438 116.397 95.4935 116.667 94.2308 116.667C90.6605 116.667 87.2366 115.13 84.712 112.395C82.1875 109.66 80.7692 105.951 80.7692 102.083C80.7692 97.1105 82.5927 92.3414 85.8385 88.8251C89.0844 85.3088 93.4866 83.3333 98.0769 83.3333C103.685 83.3402 109.062 85.7569 113.028 90.0531C116.994 94.3493 119.224 100.174 119.231 106.25C119.223 113.43 116.587 120.314 111.9 125.392C107.213 130.469 100.859 133.325 94.2308 133.333C86.583 133.324 79.2511 130.028 73.8433 124.17C68.4355 118.311 65.3935 110.368 65.3846 102.083C65.3935 92.6932 68.8407 83.6904 74.9698 77.0506C81.0989 70.4108 89.4091 66.6763 98.0769 66.6667C107.764 66.6777 117.052 70.8516 123.902 78.2725C130.752 85.6935 134.605 95.7552 134.615 106.25C134.604 117.849 130.345 128.97 122.774 137.172C115.203 145.374 104.938 149.988 94.2308 150C82.5039 149.986 71.2611 144.933 62.9689 135.95C54.6768 126.967 50.0127 114.787 50 102.083C50.014 88.2746 55.0837 75.0358 64.0969 65.2716C73.11 55.5074 85.3304 50.0152 98.0769 50C111.843 50.0165 125.041 55.9482 134.775 66.4935C144.509 77.0389 149.985 91.3367 150 106.25Z" fill="#ECDABF"/>
<path d="M150 6.25C150 6.80254 149.797 7.33244 149.437 7.72315C149.076 8.11385 148.587 8.33334 148.077 8.33334C147.567 8.33334 147.078 8.11385 146.717 7.72315C146.356 7.33244 146.154 6.80254 146.154 6.25C146.14 -7.5587 141.07 -20.7975 132.057 -30.5617C123.044 -40.326 110.823 -45.8182 98.0769 -45.8333C86.3501 -45.8195 75.1072 -40.7668 66.8151 -31.7836C58.523 -22.8005 53.8589 -10.6207 53.8462 2.08334C53.8576 13.6828 58.1161 24.8035 65.6872 33.0056C73.2583 41.2076 83.5236 45.8209 94.2308 45.8333C103.918 45.8223 113.206 41.6484 120.056 34.2275C126.906 26.8065 130.759 16.7448 130.769 6.25C130.76 -3.14012 127.313 -12.1429 121.184 -18.7827C115.055 -25.4225 106.745 -29.157 98.0769 -29.1667C90.4292 -29.157 83.0972 -25.8615 77.6894 -20.0031C72.2817 -14.1447 69.2397 -6.20172 69.2308 2.08334C69.2384 9.26375 71.8748 16.1477 76.5615 21.225C81.2483 26.3023 87.6027 29.1584 94.2308 29.1667C99.8392 29.1598 105.216 26.7431 109.182 22.4469C113.148 18.1507 115.378 12.3258 115.385 6.25C115.385 1.2772 113.561 -3.49194 110.315 -7.00825C107.069 -10.5246 102.667 -12.5 98.0769 -12.5C94.5067 -12.5 91.0827 -10.9635 88.5582 -8.22864C86.0336 -5.49373 84.6154 -1.7844 84.6154 2.08334C84.6154 4.84601 85.6284 7.49553 87.4317 9.44903C89.2349 11.4025 91.6806 12.5 94.2308 12.5C95.7609 12.5 97.2283 11.8415 98.3102 10.6694C99.3922 9.49732 100 7.90761 100 6.25C100 5.69747 99.7974 5.16756 99.4367 4.77686C99.0761 4.38616 98.587 4.16667 98.0769 4.16667C97.5669 4.16667 97.0777 3.94718 96.7171 3.55648C96.3565 3.16578 96.1538 2.63587 96.1538 2.08334C96.1538 1.5308 96.3565 1.0009 96.7171 0.610197C97.0777 0.219496 97.5669 1.66893e-06 98.0769 1.66893e-06C99.607 1.66893e-06 101.074 0.658488 102.156 1.83059C103.238 3.00269 103.846 4.5924 103.846 6.25C103.846 7.61794 103.597 8.97248 103.114 10.2363C102.631 11.5001 101.923 12.6484 101.03 13.6157C100.137 14.583 99.077 15.3503 97.9104 15.8737C96.7438 16.3972 95.4935 16.6667 94.2308 16.6667C90.6605 16.6667 87.2366 15.1302 84.712 12.3953C82.1875 9.66041 80.7692 5.95108 80.7692 2.08334C80.7692 -2.88947 82.5927 -7.65861 85.8385 -11.1749C89.0844 -14.6912 93.4866 -16.6667 98.0769 -16.6667C103.685 -16.6598 109.062 -14.2431 113.028 -9.94692C116.994 -5.6507 119.224 0.174242 119.231 6.25C119.223 13.4304 116.587 20.3144 111.9 25.3917C107.213 30.469 100.859 33.3251 94.2308 33.3333C86.583 33.3237 79.2511 30.0282 73.8433 24.1698C68.4355 18.3113 65.3935 10.3684 65.3846 2.08334C65.3935 -7.30678 68.8407 -16.3096 74.9698 -22.9494C81.0989 -29.5892 89.4091 -33.3237 98.0769 -33.3333C107.764 -33.3223 117.052 -29.1484 123.902 -21.7275C130.752 -14.3065 134.605 -4.24476 134.615 6.25C134.604 17.8494 130.345 28.9702 122.774 37.1722C115.203 45.3743 104.938 49.9876 94.2308 50C82.5039 49.9862 71.2611 44.9334 62.9689 35.9503C54.6768 26.9672 50.0127 14.7874 50 2.08334C50.014 -11.7254 55.0837 -24.9642 64.0969 -34.7284C73.11 -44.4926 85.3304 -49.9848 98.0769 -50C111.843 -49.9835 125.041 -44.0518 134.775 -33.5065C144.509 -22.9611 149.985 -8.66335 150 6.25Z" fill="#ECDABF"/>
<path d="M100 56.25C100 56.8025 99.7974 57.3324 99.4367 57.7231C99.0761 58.1138 98.587 58.3333 98.0769 58.3333C97.5669 58.3333 97.0777 58.1138 96.7171 57.7231C96.3565 57.3324 96.1538 56.8025 96.1538 56.25C96.1398 42.4413 91.0701 29.2025 82.057 19.4383C73.0438 9.67404 60.8234 4.18183 48.0769 4.16667C36.3501 4.18045 25.1072 9.23323 16.8151 18.2164C8.52298 27.1995 3.85888 39.3793 3.84615 52.0833C3.85761 63.6828 8.11608 74.8035 15.6872 83.0056C23.2583 91.2076 33.5236 95.8209 44.2308 95.8333C53.9182 95.8223 63.206 91.6484 70.0561 84.2275C76.9062 76.8065 80.759 66.7448 80.7692 56.25C80.7603 46.8599 77.3131 37.8571 71.184 31.2173C65.055 24.5775 56.7447 20.843 48.0769 20.8333C40.4292 20.843 33.0972 24.1385 27.6894 29.9969C22.2817 35.8553 19.2397 43.7983 19.2308 52.0833C19.2384 59.2637 21.8748 66.1477 26.5615 71.225C31.2483 76.3023 37.6027 79.1584 44.2308 79.1667C49.8392 79.1598 55.216 76.7431 59.1818 72.4469C63.1475 68.1507 65.3783 62.3258 65.3846 56.25C65.3846 51.2772 63.5611 46.5081 60.3153 42.9918C57.0695 39.4754 52.6672 37.5 48.0769 37.5C44.5067 37.5 41.0827 39.0365 38.5582 41.7714C36.0336 44.5063 34.6154 48.2156 34.6154 52.0833C34.6154 54.846 35.6284 57.4955 37.4317 59.449C39.2349 61.4025 41.6806 62.5 44.2308 62.5C45.7609 62.5 47.2283 61.8415 48.3102 60.6694C49.3922 59.4973 50 57.9076 50 56.25C50 55.6975 49.7974 55.1676 49.4367 54.7769C49.0761 54.3862 48.587 54.1667 48.0769 54.1667C47.5669 54.1667 47.0777 53.9472 46.7171 53.5565C46.3565 53.1658 46.1538 52.6359 46.1538 52.0833C46.1538 51.5308 46.3565 51.0009 46.7171 50.6102C47.0777 50.2195 47.5669 50 48.0769 50C49.607 50 51.0744 50.6585 52.1564 51.8306C53.2383 53.0027 53.8462 54.5924 53.8462 56.25C53.8462 57.6179 53.5974 58.9725 53.1142 60.2363C52.631 61.5001 51.9227 62.6484 51.0299 63.6157C50.137 64.583 49.077 65.3503 47.9104 65.8737C46.7438 66.3972 45.4935 66.6667 44.2308 66.6667C40.6605 66.6667 37.2366 65.1302 34.712 62.3953C32.1875 59.6604 30.7692 55.9511 30.7692 52.0833C30.7692 47.1105 32.5927 42.3414 35.8385 38.8251C39.0844 35.3088 43.4866 33.3333 48.0769 33.3333C53.6853 33.3402 59.0622 35.7569 63.0279 40.0531C66.9937 44.3493 69.2244 50.1742 69.2308 56.25C69.2231 63.4304 66.5868 70.3144 61.9 75.3917C57.2133 80.469 50.8588 83.3251 44.2308 83.3333C36.583 83.3237 29.2511 80.0282 23.8433 74.1698C18.4355 68.3113 15.3935 60.3684 15.3846 52.0833C15.3935 42.6932 18.8407 33.6904 24.9698 27.0506C31.0989 20.4108 39.4091 16.6763 48.0769 16.6667C57.7644 16.6777 67.0522 20.8516 73.9023 28.2725C80.7523 35.6935 84.6052 45.7552 84.6154 56.25C84.6039 67.8494 80.3455 78.9702 72.7744 87.1722C65.2032 95.3743 54.9379 99.9876 44.2308 100C32.5039 99.9862 21.2611 94.9334 12.9689 85.9503C4.67683 76.9672 0.0127258 64.7874 0 52.0833C0.0139981 38.2746 5.08373 25.0358 14.0969 15.2716C23.11 5.50737 35.3304 0.0151646 48.0769 0C61.8431 0.0165428 75.0411 5.94818 84.7752 16.4935C94.5094 27.0389 99.9847 41.3367 100 56.25Z" fill="#ECDABF"/>
</g>
</svg>
